<svg xmlns="http://www.w3.org/2000/svg" viewBox="0 0 10464 2381" xml:space="preserve" fill="none" width="130" height="29.58" aria-hidden="true"><g fill="rgb(16, 46, 233)"><path class="localyze-logo_svg__st0" d="M3269.7 1656.8v226h-153.1c-135 0-217.5-63.4-217.5-211.9V490.6h270.6v1094c0 39.9 32.3 72.2 72.2 72.2h27.8zM3877.7 1902.5c-177.8 0-323.6-47.1-437.3-141.1-113.7-94.2-170.6-217-170.6-368.6 0-151.6 56.5-274.6 169.6-368.6 113-94.2 259.1-141.2 438.3-141.2s325.2 47 438.3 141c113 94.1 169.6 217 169.6 368.6 0 151.6-56.6 274.5-169.6 368.6-113.1 94.3-259.2 141.3-438.3 141.3zm-247.1-312.8c60.1 51.6 142.5 77.5 247.1 77.5s186.9-25.8 247.1-77.5c60.1-51.7 90.2-117.3 90.2-197.1s-30.1-145.4-90.2-197.1c-60.1-51.7-142.5-77.5-247.1-77.5s-187 25.8-247.1 77.5c-60.1 51.7-90.2 117.3-90.2 197.1s30 145.4 90.2 197.1zM5117.1 1902.5c-183.1 0-329.2-46.4-438.3-139.2-109.2-92.8-163.7-214.4-163.7-364.7 0-150.3 56.2-278.8 168.7-373.6 112.5-94.7 255.6-142.2 429.4-142.2 147.7 0 274.2 33.4 379.4 100 105.2 66.7 166.3 162.1 183.4 286.3h-272.6c-14.4-44.4-47.7-80.7-100-108.8-52.3-28.1-115.7-42.1-190.2-42.1-98.1 0-176.8 25.5-236.3 76.4-59.5 51-89.2 118.9-89.2 203.9s29.1 147.7 87.3 196.1c58.1 48.4 138.9 72.5 242.2 72.5 156.9 0 253.6-43.2 290.2-129.4H5680c-18.3 113.7-77.8 203-178.4 267.7-100.8 64.7-228.9 97.1-384.5 97.1zM6870.1 490.6v1192.2h-21.5c-54.9 0-82.4-28.7-82.4-86.2V1269c0-126.8-47.1-222.8-141.2-288.2-94.1-65.4-215.7-98.1-364.7-98.1-149.1 0-264.8 32-354.9 96.1-90.2 64.1-141.9 149.7-155 256.9H6021c20.9-95.4 100.6-143.1 239.2-143.1 73.2 0 130.7 13.7 172.6 41.2 41.8 27.4 62.7 67.3 62.7 119.6v25.4l-441.2 33.4c-108.5 7.9-194.4 36.6-257.8 86.3-63.5 49.7-95.1 120.3-95.1 211.8 0 96.7 37.9 169.6 113.7 218.6 75.9 49 178.5 73.6 307.9 73.6 190.8 0 328.1-50.3 411.8-151 35.3 87.6 110.5 131.4 225.5 131.4h380.4V490.6h-270.6zm-374.6 1002c0 70.6-34 122.6-102 155.9s-148.4 50-241.2 50c-118.9 0-178.4-34-178.4-102 0-62.8 50.3-98.7 151-107.9l370.6-27.5v31.5zM9359.9 1673v209.8h-1000v-135.3l562.8-623.6v-11.8h-552.1c-33.4 0-63.5 19.8-76.7 50.5l-54.2 123.9-304.7 706c-17 37.9-32.4 68.6-46.1 92.2-13.7 23.5-37.3 54.2-70.5 92.2-33.3 37.9-76.5 67-129.4 87.3-53 20.2-114.7 30.4-185.4 30.4-52.3 0-109.8-7.2-172.6-21.5l-1.9-200c41.8 7.8 79.1 11.7 111.8 11.7 116.3 0 196-44.4 239.2-133.3l35.3-68.6H7627l-456.9-980.5h294.2l325.5 717.7h17.6l305.9-717.7h1215.2v135.3l-556.9 623.6v11.7h588.3z"></path><path class="localyze-logo_svg__st0" d="M10196.3 1565.2h266.7c-21 103.3-79.4 185.3-175.5 246.1-96.1 60.8-218 91.2-365.7 91.2-180.4 0-325.2-45.8-434.4-137.2-109.1-91.5-163.7-213.1-163.7-364.7s54.6-282.4 163.7-376.5c109.1-94.2 248.1-141.2 416.7-141.2 156.8 0 288.3 42.1 394.1 126.5 105.9 84.3 159.5 209.5 160.8 375.5 0 27.4-2 54.9-5.9 82.3h-858.8c9.1 67.9 41.8 121.9 98.1 161.8 56.2 39.9 132.7 59.8 229.4 59.8 149 0 240.5-41.2 274.5-123.6zm-292.1-468.7c-85 0-153.6 17-205.9 51-52.3 34-85 78.4-98.1 133.3h592.2c-7.9-56.2-37-101-87.3-134.3-50.4-33.3-117.3-50-200.9-50zM2422.2 966.8c-16.1-82.3-41.1-162.8-75-240.7-61.7-141.8-150-269.1-262.4-378.4C1854.2 123.5 1547.7 0 1221.8 0 926.6 0 647.4 101.3 425.9 287.1c-23 19.3-45.4 39.6-67.1 60.7C246.4 457 158.1 584.3 96.4 726.1c-19.1 43.8-35.3 88.4-48.8 133.8C16 966.6 0 1077.3 0 1190.3c0 161 32.5 317.1 96.4 464.2 61.7 141.8 149.9 269.1 262.3 378.3 230.7 224.2 537.2 347.8 863.1 347.8 138.1 0 272.7-22.2 399.6-64.8 31.2-10.5 61.9-22.2 92.1-35.2h.1c136.8-58.5 262.5-141.9 371.3-247.7 112.4-109.2 200.7-236.5 262.4-378.3 17.2-39.7 32.2-80 44.8-121 34.3-110.7 51.6-225.7 51.6-343.2-.1-75.8-7.2-150.5-21.5-223.6zm-2059 752.9-.1.7c-4.3 27.4-40 35.2-55.3 12.5-.1-.2-.2-.3-.3-.4-.1-.1-.2-.2-.3-.4-.7-1.2-1.5-2.4-2.2-3.6-.9-1.3-1.7-2.7-2.5-4-.1-.2-.3-.4-.4-.7-3.6-5.8-7.2-11.6-10.6-17.5-1.7-2.9-3.5-5.9-5.1-8.8-3.4-5.9-6.8-11.8-10.1-17.8-3.1-5.7-6.3-11.5-9.3-17.2-3.3-6.2-6.5-12.5-9.7-18.9-1.6-3-3-6.1-4.5-9.1s-3-6.1-4.4-9.2c-1.5-3.1-2.9-6.1-4.3-9.2-4.3-9.3-8.5-18.6-12.5-28-2.6-6.2-5.2-12.4-7.7-18.6-1.3-3.1-2.5-6.3-3.7-9.4-1.3-3.1-2.5-6.3-3.7-9.5-2.4-6.3-4.8-12.7-7-19-3.4-9.4-6.6-18.9-9.7-28.3-1.1-3.4-2.2-6.8-3.2-10.1-2.9-9.4-5.7-18.8-8.4-28.3-.1-.3-.2-.6-.3-1-1.5-5.4-3-10.8-4.4-16.2-.3-1.2-.6-2.3-.9-3.4-.9-3.3-1.7-6.6-2.5-9.9-.9-3.3-1.6-6.6-2.4-9.9-.8-3.3-1.6-6.6-2.3-9.9-.1-.5-.2-1-.3-1.4-1.3-5.8-2.6-11.6-3.7-17.4-2.1-10.3-4.1-20.7-5.9-31.2-.6-3.3-1.1-6.7-1.7-10.1-.6-3.4-1.1-6.8-1.6-10.1-1.9-12.2-3.5-24.6-4.9-36.9-.3-2.5-.6-5-.9-7.4-.6-5.6-1.1-11.1-1.6-16.7-.3-3.2-.6-6.5-.9-9.8-.8-9.6-1.4-19.2-1.9-28.9-.1-2.1-.2-4.3-.3-6.4-.1-2.1-.2-4.3-.3-6.4-.1-3.4-.3-6.9-.4-10.3l-.3-10.5c-.1-2.5-.1-5-.1-7.6 0-4.4-.1-8.8-.1-13.2v-9c.6-34 40.7-51.9 66.6-29.6 1 .9 2 1.7 3 2.6.3.3.6.5.9.7 2.3 2 4.6 3.9 7 5.8l7.5 6c2.1 1.7 4.3 3.3 6.4 5 2.9 2.2 5.7 4.3 8.6 6.4 2.5 1.9 5 3.6 7.6 5.4 5 3.5 10.1 6.9 15.2 10.1 5.2 3.3 8.1 8.9 8.1 14.6 0 3.2-.9 6.4-2.8 9.3-43.9 67-27.6 174.9-10.9 243.8 23.9 98.5 110.8 161.3 95.5 258.3zM2254.6 1469c-48.7 170.3-141.9 326.6-274.1 455.1-1.9 1.8-4 2.6-6.2 2.6-5.1 0-9.9-4.4-8.9-10.5 23.1-145.9 9.6-296-39.3-391.9-45.3-78.8-134.3 41.7-183.8-44.1-61.2-106.2-135.3-140.7-271.4-148.9-203-12.2-332.5 34-375.7 243.2-28.1 136.2 84.3 254.4 279.8 322.2 122.2 42.4 42.1 155.9 38.5 266.1-1 29.8-23.7 54.3-53.2 58-45.6 5.7-91.8 8.6-138.5 8.6-219.4 0-428.5-63.5-605.5-181.4-35.8-23.9-46.5-72-24.4-108.9 52.2-87.2 108.4-144 152.4-182.3 117.3-102 225.7-164.3 182-281.7-49.7-133.6-216-153.4-347.1-269.3-44.3-39.1-98.9-55.3-150.2-55.1-30.1.2-55.4-22.8-59.3-52.7-5.8-44.6-.5-85.6 28.8-107.3 55.7-41.2 115.5-26.2 162.1 23.3 37.5 39.9 118.6 12.2 110.7-45.6-17.9-130.2 121.4-168.5 146.9-287.6 25.2-117.4-40.4-207.7-138.9-279-39.2-28.4-35.9-87.9 6.3-111.7 161.2-90.6 344.8-138.9 536.1-138.9 63.1 0 124.9 8.1 186.2 15.5 46.9 5.7 63 46.3 42.7 77.5-60.5 92.9-113.5 70.9-149.9 126.5-22.4 34.3-.3 109.7 48.5 110.6 79 1.4 57.9 62.7 117.5 64.9 80.8 3 128.3-164.3 172.3-145.6 15.7 6.7 9 24.8 0 44.1-36.2 76.9-76.5 162.5-198.8 168.1-77.4 0-157.9 2.9-219.2 18.2-53.4 13.3-81.3 27.5-113.1 44.5-54.3 29.2-57.6 109.6-23.8 159.6 18.9 28 39.7 63.5 34.8 110.4-11.4 108-90.3 61.4-100.1 188.1-1.3 17.1-.7 114.8 37.7 158.4 23.1 26.2 44.6 44.9 106.6 43.2 49.6-1.4 95-14.5 130.8-36.8 63.2-39.3 81.2-70.8 89-156.6 4.1-67.4 49.4-92.3 92.8-79.8 39.5 11.3 49.6 79 135 78.9 35.5 0 56.1-22.6 98.1-35.2 53.4-16.1 86.7 40.4 108.7 102.1 51.6 144.4 183.6 152.1 294.2 127.9 16.3-3.6 30.8-5.3 43.7-5.3 112.6-.1 103.3 124 99.2 138.6z"></path></g></svg>